<svg width="32" height="32" viewBox="0 0 32 32" fill="none" xmlns="http://www.w3.org/2000/svg">
<circle cx="16" cy="16" r="16" fill="#159AE4"/>
<path d="M8 27L8 5H12.5833V22.9667H24.8667V27H8Z" fill="#333134"/>
<path d="M24.8667 5L14.4167 5V20.4H17.35V13.717L24.2567 13.717V11.495H17.35V7.2L24.8667 7.2V5Z" fill="#333134"/>
<path d="M8 27H7.95V27.05H8V27ZM8 5V4.95H7.95V5H8ZM12.5833 5H12.6333V4.95H12.5833V5ZM12.5833 22.9667H12.5333V23.0167H12.5833V22.9667ZM24.8667 22.9667H24.9167V22.9167H24.8667V22.9667ZM24.8667 27V27.05H24.9167V27H24.8667ZM24.8667 5H24.9167V4.95H24.8667V5ZM14.4167 5V4.95H14.3667V5H14.4167ZM14.4167 20.4H14.3667V20.45H14.4167V20.4ZM17.35 20.4V20.45H17.4V20.4H17.35ZM17.35 13.717V13.667H17.3V13.717H17.35ZM24.2567 13.717V13.7669H24.3067V13.717H24.2567ZM24.2567 11.495H24.3067V11.445H24.2567V11.495ZM17.35 11.495H17.3V11.545H17.35V11.495ZM17.35 7.2V7.15H17.3V7.2H17.35ZM24.8667 7.2V7.25H24.9167V7.2H24.8667ZM8.05 27L8.05 5H7.95L7.95 27H8.05ZM8 5.05H12.5833V4.95H8V5.05ZM12.5333 5V22.9667H12.6333V5H12.5333ZM12.5833 23.0167H24.8667V22.9167H12.5833V23.0167ZM24.8167 22.9667V27H24.9167V22.9667H24.8167ZM24.8667 26.95H8V27.05H24.8667V26.95ZM24.8667 4.95L14.4167 4.95V5.05L24.8667 5.05V4.95ZM14.3667 5V20.4H14.4667V5H14.3667ZM14.4167 20.45H17.35V20.35H14.4167V20.45ZM17.4 20.4V13.717H17.3V20.4H17.4ZM17.35 13.7669L24.2567 13.7669V13.667L17.35 13.667V13.7669ZM24.3067 13.717V11.495H24.2067V13.717H24.3067ZM24.2567 11.445H17.35V11.545H24.2567V11.445ZM17.4 11.495V7.2H17.3V11.495H17.4ZM17.35 7.25L24.8667 7.25V7.15L17.35 7.15V7.25ZM24.9167 7.2V5H24.8167V7.2H24.9167Z" fill="#141414"/>
</svg>
